# xmcd
#
# Track frame offsets: 
#        150
#        8625
#        18825
#        30450
#        38925
#        49050
#        59925
#        70875
#        81150
#        92700
#        105150
#        114375
#        126375
#        135450
#        146550
#        161025
#        173925
#        186075
#        195900
#        208050
#        220125
#        230700
#        240975
#        250650
#        261375
#        273075
#        281925
#
# Disc length: 3909 seconds
#
# Revision: 0
# Processed by: cddbd v1.5.2PL0 Copyright (c) Steve Scherf et al.
# Submitted via: ExactAudioCopy v1.0b4
#
DISCID=830f431b
DTITLE=Tompall and The Glaser Brothers - Same Old Memories
DYEAR=2015
DGENRE=Country
TTITLE0=Lay Down The Gun
TTITLE1=Oh Little Mary Let Me Be
TTITLE2=Ooe Gooie
TTITLE3=She Loves The Love I Give Her
TTITLE4=I'll Never Tell
TTITLE5=Twenty One Miles From Home
TTITLE6=Careless Love Goodbye
TTITLE7=Alibi
TTITLE8=Same Old Memories
TTITLE9=Sweet Love Goodbye
TTITLE10=Judy's Growin Up
TTITLE11=Words Come easy
TTITLE12=Tired Of Crying Over You
TTITLE13=Let Me Down Easy
TTITLE14=I Cant Remember
TTITLE15=Im Losing Again
TTITLE16=Stand Beside Me
TTITLE17=Trackin Me Down
TTITLE18=Blow Out The Candles
TTITLE19=Mr Lonesome
TTITLE20=Sylvie
TTITLE21=Chilly Winds
TTITLE22=Down The Mountain
TTITLE23=I Never Will Mary
TTITLE24=The Wreck Of The Old No 9
TTITLE25=Erie Canal
TTITLE26=This Land Is Your Land
EXTD=
EXTT0=
EXTT1=
EXTT2=
EXTT3=
EXTT4=
EXTT5=
EXTT6=
EXTT7=
EXTT8=
EXTT9=
EXTT10=
EXTT11=
EXTT12=
EXTT13=
EXTT14=
EXTT15=
EXTT16=
EXTT17=
EXTT18=
EXTT19=
EXTT20=
EXTT21=
EXTT22=
EXTT23=
EXTT24=
EXTT25=
EXTT26=
PLAYORDER=
